<svg width="35" height="35" viewBox="0 0 35 35" fill="none" xmlns="http://www.w3.org/2000/svg">
<path fill-rule="evenodd" clip-rule="evenodd" d="M16.9399 0.0371513C17.027 -0.0125203 17.134 -0.0123744 17.221 0.0375348L21.6657 2.58652C21.7537 2.637 21.808 2.73073 21.808 2.8322V7.64695C21.808 7.74665 21.7556 7.839 21.67 7.89011L14.9526 11.9016L17.5655 13.5468L29.5958 6.55244C29.6859 6.50005 29.7975 6.5014 29.8864 6.55596L34.865 9.61393C34.9489 9.66545 35 9.75683 35 9.85526V23.96C35 24.0493 34.9579 24.1334 34.8864 24.1869L31.3238 26.8501C31.2335 26.9176 31.1117 26.9251 31.0137 26.8691L27.0486 24.6028C26.9604 24.5524 26.9059 24.4586 26.9059 24.357V20.9098L21.808 24.1776V31.4375C21.808 31.5342 21.7586 31.6243 21.677 31.6763L17.2323 34.5085C17.1385 34.5683 17.0183 34.5676 16.9252 34.5068L12.59 31.6746C12.51 31.6223 12.4617 31.5331 12.4617 31.4375V24.1164L7.36373 20.905V24.357C7.36373 24.4516 7.31642 24.5401 7.23764 24.5926L3.83899 26.8589C3.74385 26.9223 3.61988 26.9223 3.52474 26.8589L0.126093 24.5926C0.047316 24.5401 0 24.4516 0 24.357V9.85526C0 9.75351 0.0545858 9.65958 0.142993 9.6092L16.9399 0.0371513ZM6.79729 20.552L0.566441 16.8053V24.2054L3.68187 26.2828L6.79729 24.2054V20.552ZM0.566441 16.1443L7.2315 20.1522L12.8932 23.7187L12.8959 23.7204L17.0836 26.293L21.3767 23.7812L27.0363 20.1534C27.0421 20.1497 27.048 20.1462 27.054 20.143L34.4336 16.136V10.3388L17.2186 19.9911C17.1307 20.0404 17.0232 20.0393 16.9364 19.9881L0.566441 10.3507V16.1443ZM0.848246 9.85925L17.0835 19.4174L34.1575 9.84414L29.7342 7.12722L17.702 14.1226C17.6109 14.1756 17.4979 14.1736 17.4088 14.1175L9.76181 9.30273C9.6765 9.24901 9.62617 9.15398 9.62967 9.05322C9.63317 8.95247 9.68997 8.86116 9.7788 8.81349L20.9411 2.82397L17.0796 0.609455L0.848246 9.85925ZM21.2415 3.30559L10.4753 9.08259L14.4148 11.563L21.2415 7.48621V3.30559ZM34.4336 16.7806L27.4724 20.5604V24.1926L31.1335 26.2852L34.4336 23.8182V16.7806ZM21.2415 24.5166L17.2231 26.8677C17.1329 26.9205 17.0209 26.9193 16.9318 26.8646L13.0281 24.4664V31.2842L17.082 33.9326L21.2415 31.2821V24.5166Z" fill="#31912D"/>
</svg>
