<svg width="35" height="35" viewBox="0 0 35 35" fill="none" xmlns="http://www.w3.org/2000/svg">
<path fill-rule="evenodd" clip-rule="evenodd" d="M16.9399 0.0371513C17.027 -0.0125203 17.134 -0.0123744 17.221 0.0375348L21.6657 2.58652C21.7537 2.637 21.808 2.73073 21.808 2.8322V11.0802L29.5958 6.55244C29.6859 6.50005 29.7975 6.5014 29.8864 6.55596L34.865 9.61393C34.9489 9.66545 35 9.75683 35 9.85526V23.96C35 24.0619 34.9453 24.1559 34.8568 24.2063L17.2201 34.2327C17.1329 34.2822 17.0261 34.282 16.9392 34.2322L0.142359 24.6027C0.0543085 24.5522 0 24.4585 0 24.357V9.85526C0 9.75351 0.0545858 9.65958 0.142993 9.6092L16.9399 0.0371513ZM21.2415 11.4096V8.14597L14.9526 11.9016L17.5655 13.5468L21.2415 11.4096ZM14.4148 11.563L21.2415 7.48621V3.30559L10.4753 9.08259L14.4148 11.563ZM20.9411 2.82397L9.7788 8.81349C9.68997 8.86116 9.63317 8.95247 9.62967 9.05322C9.62617 9.15398 9.6765 9.24901 9.76181 9.30273L17.4088 14.1175C17.4979 14.1736 17.6109 14.1756 17.702 14.1226L29.7342 7.12722L34.1575 9.84414L17.0835 19.4174L0.848246 9.85925L17.0796 0.609455L20.9411 2.82397ZM0.566441 10.3507V16.1461L17.0836 26.293L21.3767 23.7812L27.0363 20.1534C27.0421 20.1497 27.048 20.1462 27.054 20.143L34.4336 16.136V10.3388L17.2186 19.9911C17.1307 20.0404 17.0232 20.0393 16.9364 19.9881L0.566441 10.3507ZM34.4336 16.7806L27.3333 20.6359L21.6776 24.2612C21.6744 24.2633 21.6711 24.2653 21.6678 24.2672L17.2231 26.8677C17.1329 26.9205 17.0209 26.9193 16.9318 26.8646L0.566441 16.8109V24.1929L17.0807 33.6603L34.4336 23.7953V16.7806Z" fill="#31912D"/>
</svg>
