<svg width="35" height="26" viewBox="0 0 35 26" fill="none" xmlns="http://www.w3.org/2000/svg">
<path fill-rule="evenodd" clip-rule="evenodd" d="M18.5745 0.025763C18.6544 -0.0108576 18.7468 -0.00832133 18.8245 0.0326281L34.8488 8.47179C34.9418 8.52078 35 8.61726 35 8.72238V15.1716C35 15.2722 34.9466 15.3653 34.8598 15.4161L17.2231 25.7348C17.1329 25.7876 17.0209 25.7864 16.9318 25.7317L0.134971 15.4129C0.0511034 15.3614 0 15.27 0 15.1716V8.72238C0 8.61165 0.0645358 8.51107 0.165197 8.46493L18.5745 0.025763ZM0.566441 9.21778V15.0132L17.0836 25.1601L34.4336 15.0092V9.20589L17.2186 18.8582C17.1307 18.9075 17.0232 18.9064 16.9364 18.8553L0.566441 9.21778ZM34.1238 8.73018L18.6839 0.598754L0.894615 8.75367L17.0835 18.2846L34.1238 8.73018Z" fill="#31912D"/>
</svg>
