<svg width="36" height="36" viewBox="0 0 36 36" fill="none" xmlns="http://www.w3.org/2000/svg">
<path fill-rule="evenodd" clip-rule="evenodd" d="M25.6669 1.54695V14.2646C25.6669 14.2677 25.6669 14.2708 25.6669 14.2738V19.2643L26.9333 19.2643V1.54689L25.6669 1.54695ZM27.4802 19.2643V1.27344C27.4802 1.20092 27.4514 1.13136 27.4001 1.08008C27.3488 1.0288 27.2793 0.999997 27.2067 1L25.3934 1.00009C25.2424 1.00009 25.12 1.12251 25.12 1.27352V13.7727L18.9724 9.88724V1.27352C18.9724 1.12251 18.85 1.00009 18.699 1.00009H16.6866C16.5356 1.00009 16.4132 1.12251 16.4132 1.27352V9.88028L9.65521 13.7946V1.27352C9.65521 1.12251 9.53278 1.00009 9.38177 1.00009H7.62005C7.46903 1.00009 7.34661 1.12251 7.34661 1.27352V19.2643L6.54387 19.2643C6.47135 19.2643 6.40179 19.2931 6.35051 19.3443C6.29923 19.3956 6.27041 19.4652 6.27041 19.5377V20.6155C6.27041 20.7665 6.39284 20.8889 6.54385 20.8889H8.31961V22.1266C8.31961 22.2776 8.44203 22.4 8.59305 22.4C8.74406 22.4 8.86649 22.2776 8.86649 22.1266V20.8889H10.6422C10.7933 20.8889 10.9157 20.7665 10.9157 20.6155V19.5378C10.9157 19.3868 10.7933 19.2643 10.6422 19.2643H9.65521V14.4266L16.4132 10.5123V24.0198H15.4778C15.3267 24.0198 15.2043 24.1422 15.2043 24.2932V25.451C15.2043 25.602 15.3267 25.7244 15.4778 25.7244H17.471V26.6599C17.471 26.8109 17.5934 26.9333 17.7444 26.9333C17.8954 26.9333 18.0178 26.8109 18.0178 26.6599V25.7244H20.0111C20.1621 25.7244 20.2845 25.602 20.2845 25.451V24.2932C20.2845 24.1422 20.1621 24.0198 20.0111 24.0198H18.9724V10.5342L25.12 14.4196V19.2643L24.1846 19.2643C24.1121 19.2643 24.0425 19.2931 23.9912 19.3443C23.9399 19.3956 23.9111 19.4652 23.9111 19.5377V20.6155C23.9111 20.7665 24.0335 20.8889 24.1846 20.8889H26.0267V22.1266C26.0267 22.2776 26.1491 22.4 26.3001 22.4C26.4511 22.4 26.5735 22.2776 26.5735 22.1266V20.8889H28.4156C28.5667 20.8889 28.6891 20.7665 28.6891 20.6155V19.5377C28.6891 19.3867 28.5667 19.2643 28.4156 19.2643H27.4802ZM18.4255 10.0333C18.4255 10.0362 18.4255 10.0391 18.4255 10.042V24.0198H16.9601V10.0426C16.9601 10.0393 16.9601 10.036 16.9601 10.0327V1.54696H18.4255V10.0333ZM9.10833 14.2643C9.10827 14.2676 9.10827 14.2709 9.10833 14.2742V19.2643H7.89349V1.54696H9.10833V14.2643ZM28.9317 16.0729C29.0113 15.9445 29.1799 15.905 29.3082 15.9846L34.6617 19.3054C34.7421 19.3553 34.791 19.4432 34.791 19.5378V25.7642C34.791 25.8614 34.7395 25.9512 34.6557 26.0002L17.6282 35.9626C17.5411 36.0135 17.433 36.0124 17.347 35.9595L1.13031 25.9972C1.04934 25.9475 1 25.8593 1 25.7642V19.5378C1 19.4439 1.04821 19.3565 1.12767 19.3064L6.39809 15.9857C6.52586 15.9052 6.69469 15.9435 6.7752 16.0712C6.8557 16.199 6.81739 16.3679 6.68962 16.4484L1.79895 19.5299L17.4934 28.7697L33.9797 19.5259L29.0199 16.4494C28.8916 16.3698 28.8521 16.2012 28.9317 16.0729ZM34.2442 20.0046L17.6238 29.3235C17.539 29.3711 17.4352 29.37 17.3514 29.3206L1.54688 20.0161V25.6113L17.4935 35.4078L34.2442 25.6074V20.0046ZM6.81729 19.8112V20.3421H10.3688V19.8112L6.81729 19.8112ZM24.458 19.8112V20.3421H28.1422V19.8111L24.458 19.8112ZM15.7512 24.5666V25.1776H19.7376V24.5666H15.7512Z" fill="#31912D"/>
</svg>
