<svg width="35" height="27" viewBox="0 0 35 27" fill="none" xmlns="http://www.w3.org/2000/svg">
<path fill-rule="evenodd" clip-rule="evenodd" d="M16.9399 0.0371513C17.027 -0.0125203 17.1339 -0.0123744 17.221 0.0375348L21.6657 2.58652C21.7537 2.637 21.808 2.73073 21.808 2.8322V7.64695C21.808 7.74665 21.7556 7.839 21.67 7.89011L14.9526 11.9016L17.5655 13.5468L29.5958 6.55244C29.6859 6.50005 29.7975 6.5014 29.8864 6.55596L34.865 9.61393C34.9489 9.66545 35 9.75683 35 9.85526V16.3045C35 16.4051 34.9466 16.4981 34.8598 16.5489L17.2231 26.8677C17.1329 26.9205 17.0209 26.9193 16.9318 26.8646L0.134971 16.5458C0.0511034 16.4943 0 16.4029 0 16.3045V9.85526C0 9.75351 0.0545858 9.65958 0.142993 9.6092L16.9399 0.0371513ZM14.4148 11.563L21.2415 7.48621V3.30559L10.4753 9.08259L14.4148 11.563ZM20.9411 2.82397L9.7788 8.81349C9.68997 8.86116 9.63317 8.95246 9.62967 9.05322C9.62617 9.15398 9.6765 9.24901 9.76181 9.30273L17.4088 14.1175C17.4979 14.1736 17.6109 14.1756 17.702 14.1226L29.7342 7.12722L34.1575 9.84414L17.0835 19.4174L0.848246 9.85925L17.0796 0.609455L20.9411 2.82397ZM0.566441 10.3507V16.1461L17.0836 26.293L34.4336 16.1421V10.3388L17.2186 19.9911C17.1307 20.0404 17.0232 20.0393 16.9364 19.9881L0.566441 10.3507Z" fill="#31912D"/>
</svg>
